<?xml version="1.0" encoding="UTF-8" standalone="no"?>
<svg width="148px" height="178px" viewBox="0 0 148 178" version="1.1" xmlns="http://www.w3.org/2000/svg" xmlns:xlink="http://www.w3.org/1999/xlink">
    <!-- Generator: Sketch 3.8.3 (29802) - http://www.bohemiancoding.com/sketch -->
    <title>panda-sad</title>
    <desc>Created with Sketch.</desc>
    <defs>
        <path d="M0.335992668,13.4298035 C4.21699907,6.2066165 11.6391276,1.08538582 20.444633,0.515746562 L24.348855,0.26347053 C24.8910189,0.228287819 25.4303758,0.211096267 25.9661236,0.211096267 C35.3520929,0.210804494 43.6516017,5.51746597 47.779594,13.4298055 L0.335990551,13.4298074 L0.335992668,13.4298035 Z" id="path-1"></path>
    </defs>
    <g id="Page-1" stroke="none" stroke-width="1" fill="none" fill-rule="evenodd">
        <g id="panda-sad">
            <g id="Group-19" transform="translate(28.857375, 51.400119)">
                <path d="M22.5014875,126.314249 C15.0335001,126.314249 8.69435259,120.596259 8.07399193,113.04437 L5.83916974,85.848534 C5.18592636,77.895642 11.122461,70.9202697 19.0997296,70.2689898 C27.0753942,69.613312 34.0729982,75.5368012 34.7266426,83.4892933 L36.9610638,110.685129 C37.6147082,118.638021 31.6777725,125.613394 23.7005039,126.264673 C23.2986931,126.297857 22.8980852,126.314249 22.5014875,126.314249" id="Fill-1" fill="#131316"></path>
                <path d="M61.6052618,126.204663 C60.6793324,126.204663 59.7397687,126.115907 58.796997,125.930798 C50.9432391,124.393553 45.8267675,116.799685 47.3690474,108.969133 L53.3055821,78.8291433 C54.847862,70.9993909 62.4670298,65.8966983 70.3187826,67.4355421 C78.1725405,68.9731865 83.2890121,76.5670549 81.7463311,84.397607 L75.8101975,114.537596 C74.4527826,121.427411 68.3919352,126.204663 61.6052618,126.204663" id="Fill-3" fill="#131316"></path>
                <g id="Group-2" transform="translate(51.000000, -2.000000)">
                    <path d="M13.4610075,65.2852408 C8.13454087,65.2852408 3.13529749,61.9989737 1.20961491,56.7059943 C-1.2506188,49.9444252 2.23976203,42.4699735 9.00540474,40.0112211 L27.115218,33.4300354 C33.6402045,31.0590956 38.4394781,25.6008728 39.9544004,18.8289219 L41.7935159,10.6061167 C43.3642739,3.5837052 50.333349,-0.835906612 57.3591255,0.734770737 C64.3844692,2.30415036 68.8067436,9.26859688 67.2364185,16.2901432 L65.3968701,24.513381 C61.9315937,40.0047325 50.9510044,52.4914227 36.0246921,57.9163373 L17.914446,64.4975229 C16.4445386,65.0317522 14.9395716,65.2852408 13.4610075,65.2852408" id="Fill-5" fill="#131316"></path>
                    <path d="M52.4290924,25.7377393 L50.8851703,25.3354452 C47.4809236,24.4486679 45.4405397,20.9716355 46.3278513,17.5694385 L46.3278513,17.5694385 C47.2151629,14.1668089 50.6942901,12.1276536 54.0985367,13.0148635 L55.6424589,13.416725 C59.0471384,14.303935 61.0875223,17.7809673 60.2002107,21.1831644 L60.2002107,21.1831644 C59.3124662,24.5853614 55.8333391,26.6245167 52.4290924,25.7377393" id="Fill-7" fill="#FFFFFF"></path>
                    <path d="M59.0073609,8.52236293 L58.8298986,9.2032349 C58.438183,10.7051329 56.9024847,11.6048875 55.4001146,11.2134078 C53.8977446,10.821928 52.9970151,9.28758689 53.3887307,7.78612144 L53.5666259,7.10481689 C53.9579087,5.60335143 55.493607,4.70359685 56.995977,5.09464403 C58.498347,5.48612379 59.3990765,7.02089747 59.0073609,8.52236293" id="Fill-9" fill="#FFFFFF"></path>
                    <path d="M63.6697289,14.1978245 L63.1299837,14.5140363 C61.9401205,15.2113461 60.410049,14.8129452 59.7123191,13.6237984 C59.0145892,12.4346516 59.4132302,10.9055014 60.6030934,10.207759 L61.1428386,9.89154716 C62.3327018,9.19423736 63.8627732,9.59307088 64.5605031,10.7822177 L64.5605031,10.7822177 C65.258233,11.9713645 64.8595921,13.5005147 63.6697289,14.1978245" id="Fill-11" fill="#FFFFFF"></path>
                    <path d="M46.9422172,9.84015733 L47.2586196,10.3795775 C47.9563495,11.5687243 49.4868537,11.9671253 50.6762841,11.2698154 C51.8661473,10.5725056 52.2652211,9.04335543 51.5674912,7.85420863 L51.2510889,7.31478846 C50.553359,6.12564166 49.0228547,5.72724071 47.8329915,6.42455051 C46.6431283,7.12186031 46.2444873,8.65101053 46.9422172,9.84015733" id="Fill-13" fill="#FFFFFF"></path>
                </g>
                <path d="M47.2460179,106.149998 L43.6541818,106.382284 C21.1110696,107.840367 1.65091324,90.8027395 0.188434048,68.3273839 L0.188434048,68.3273839 C-1.27404515,45.8520283 15.815347,26.4503623 38.3580583,24.9926786 L41.9502953,24.7603927 C64.4930066,23.3023092 83.9531629,40.3399369 85.4156421,62.8148927 L85.4156421,62.8152925 C86.8781213,85.2902483 69.7887291,104.691914 47.2460179,106.149998" id="Fill-15" fill="#131316"></path>
                <path d="M46.6128651,94.0070449 L42.7082421,94.2597207 C29.1489306,95.1364899 17.443884,84.8887256 16.5644716,71.3701687 L16.5644716,71.3701687 C15.6846583,57.8516117 25.9637175,46.1817463 39.523029,45.3049771 L43.427652,45.0523013 C56.9865624,44.1751323 68.6916091,54.4232964 69.5714224,67.9418533 L69.5714224,67.9418533 C70.4508348,81.4604103 60.1721765,93.1302757 46.6128651,94.0070449" id="Fill-17" fill="#FFFFFF"></path>
            </g>
            <g id="Group-22" transform="translate(48.105798, 96.178115)">
                <mask id="mask-2" fill="white">
                    <use xlink:href="#path-1"></use>
                </mask>
                <g id="Clip-21"></g>
                <path d="M26.0733132,12.985339 L20.383399,13.3535581 C0.624090038,14.6313302 -16.4332214,-0.302531336 -17.7152467,-20.0024508 L-17.7152467,-20.0024508 C-18.9968709,-39.70277 -4.01798815,-56.7084135 15.7413208,-57.9865854 L21.4312351,-58.3544046 C41.190544,-59.6325765 58.2478555,-44.698715 59.5298807,-24.9987956 L59.5298807,-24.9983958 C60.8115049,-5.29847633 45.8326222,11.7075669 26.0733132,12.985339" id="Fill-20" fill="#E6E6E6" mask="url(#mask-2)"></path>
            </g>
            <path d="M33.5320547,148.332966 C30.9792325,148.332966 28.4059589,147.529761 26.2192577,145.867378 C21.8651039,142.557804 20.3966096,136.874197 22.2468643,132.018983 L16.3949425,128.140489 C11.4773712,124.881291 8.77537375,119.215675 9.34400427,113.354955 C9.91263479,107.494634 13.6540471,102.450713 19.1077672,100.191423 L31.5133763,95.053548 C37.6732729,92.5008024 44.7406524,95.4125716 47.2990888,101.553554 C49.6197268,107.123217 47.4342287,113.437714 42.4119942,116.467825 L42.4821707,116.514202 C46.1425793,118.94061 48.6593107,122.810708 49.3871417,127.132584 C50.1145717,131.453661 49.0033763,135.931461 46.3386726,139.415349 L43.1450383,143.592096 C40.76866,146.700169 37.1712098,148.332966 33.5320547,148.332966" id="Fill-23" fill="#131316"></path>
            <path d="M105.161174,35.6433422 L110.034634,35.2667273 C119.781154,34.5130976 127.080316,26.012075 126.324415,16.29485 C125.568914,6.57762509 117.042263,-0.69999868 107.295744,0.0536309856 C97.5492242,0.806860848 90.2496605,9.30828324 91.0055622,19.0255082 L91.3833125,23.8839208 C91.8813654,30.9112675 98.0685306,36.1918726 105.161174,35.6433422" id="Fill-25" fill="#000000"></path>
            <path d="M23.9559238,41.9215771 L19.0824635,42.298192 C9.33594399,43.0518217 0.809293298,35.7741979 0.0537926673,26.0569729 C-0.702108972,16.339748 6.59745471,7.83872539 16.3439743,7.08509572 C26.0904938,6.33186586 34.6171445,13.6090898 35.3726451,23.3263148 L35.7507965,28.1851272 C36.3450915,35.2048776 31.0485669,41.3730466 23.9559238,41.9215771" id="Fill-27" fill="#000000"></path>
            <path d="M95.4871967,93.4968729 L95.4871967,93.4968729 C79.9849975,102.003093 61.3232497,103.591113 44.6132118,97.8171499 L43.165169,97.300204 C26.3103669,91.5374358 14.7019634,77.0941332 13.4038978,60.401536 L13.0858978,56.3123454 C10.9866166,29.3252069 32.8267604,5.56888079 61.8249117,3.32718236 C90.823464,1.08508413 116.072183,21.152423 118.175073,48.1879378 L118.530367,52.7576922 C119.813595,69.2579839 110.852251,85.0982 95.4871967,93.4968729" id="Fill-29" fill="#FFFFFF"></path>
            <path d="M62.0637526,6.39555456 C34.7875331,8.50451822 14.1969329,30.7903669 16.1634802,56.0747422 L16.4814802,60.1631331 C17.6833036,75.61514 28.5506429,89.0493385 44.1667286,94.3887147 L45.6540703,94.9196538 C61.5685067,100.417752 79.2004638,98.9204878 93.9984915,90.8004779 L94.0029026,90.7980791 C108.214655,83.0298964 116.634237,68.191588 115.452464,52.9958552 L115.09717,48.4257009 C113.130623,23.1417255 89.339972,4.28659091 62.0637526,6.39555456 M70.2639821,104.138724 C61.3206832,104.830384 52.2386353,103.709335 43.6021082,100.725601 L42.1239896,100.19746 C24.2153364,94.0748689 11.7182973,78.5421017 10.3259947,60.6392992 L10.0079947,56.5505084 C7.7779846,27.8817962 30.9161939,2.62940525 61.5865521,0.258170475 C92.2569102,-2.1130643 119.023046,19.2812225 121.252655,47.9499347 L121.60835,52.5196891 C122.977394,70.122639 113.306666,87.2666145 96.97117,96.1954269 C88.659861,100.755586 79.5377122,103.421876 70.2639821,104.138724" id="Fill-31" fill="#000000"></path>
            <path d="M27.3137311,39.4169278 C31.8214714,30.7751744 41.390344,27.4328168 48.6862986,31.9517962 C55.9822532,36.4703758 58.2419379,47.139533 53.7341977,55.7812864 C49.2260565,64.4234396 39.6575848,67.7653974 32.3616302,63.2468178 C25.0656756,58.7278385 22.8059909,48.0586813 27.3137311,39.4169278" id="Fill-33" fill="#000000"></path>
            <path d="M93.6183352,87.1250041 L93.6143251,87.1270031 C78.8712355,95.216228 61.3066479,96.7074952 45.4523629,91.229787 L43.9774524,90.7036455 C28.3998635,85.3774628 17.5593919,71.9740493 16.3603755,56.5560257 L16.6739644,60.5864451 C17.8729808,76.0044687 28.7134524,89.4082821 44.2910413,94.7344648 L45.7659518,95.2606062 C61.6202368,100.738314 79.1848244,99.2470473 93.927914,91.1578223 L93.9319241,91.1554235 C108.108388,83.4064314 116.507117,68.6017064 115.32775,53.4399569 L115.014161,49.4091377 C116.193528,64.571287 107.7952,79.3760119 93.6183352,87.1250041" id="Fill-35" fill="#E6E6E6"></path>
            <path d="M73.9612434,68.7931723 L69.5200706,72.0691625 C68.1510265,73.0498806 66.3557099,73.1886124 64.903256,72.4261871 L60.0081412,69.8718423 C58.6619546,69.1525957 57.7853493,67.831245 57.6698587,66.3483737 C57.4829886,63.9443551 59.2811122,61.8501841 61.6919773,61.6638757 L71.0282648,60.9422303 C73.4391299,60.755522 75.5396141,62.5482411 75.7268852,64.9522598 C75.8419748,66.4355309 75.1839193,67.9267981 73.9612434,68.7931723" id="Fill-37" fill="#000000"></path>
            <path d="M52.8997992,83.5240327 C51.8202834,82.6028854 51.6943667,80.9836811 52.618291,79.9074099 C53.5426163,78.8315386 55.1663011,78.7060003 56.2458168,79.6271477 C62.8945432,85.3023589 72.9346012,84.5259404 78.6265205,77.8967979 C79.5508459,76.8209266 81.1745306,76.6953883 82.2540464,77.6161359 C83.3331611,78.537683 83.4590779,80.1568873 82.5351535,81.2327587 C78.7668736,85.6218019 73.558972,88.0729974 68.1926718,88.4879934 C62.8263717,88.9029895 57.3016731,87.2813864 52.8997992,83.5240327 Z" id="Fill-39" fill="#010202" transform="translate(67.576740, 82.775656) scale(-1, -1) translate(-67.576740, -82.775656) "></path>
            <path d="M68.0905543,80.8464864 C66.9573034,80.9179206 65.9672126,80.2286949 65.8793917,79.3069003 L65.0561205,70.6695611 C64.9682996,69.7477666 65.8156313,68.9424195 66.9488822,68.8709853 C68.0821331,68.7995511 69.0722239,69.4887769 69.1600449,70.4105714 L69.983316,79.0479106 C70.0711369,79.9697052 69.2238053,80.7750522 68.0905543,80.8464864" id="Fill-41" fill="#010202"></path>
            <path d="M37.7183062,40.3728581 C39.3183314,37.3055654 42.7144751,36.1193483 45.3041901,37.7229603 C47.8935041,39.326972 48.6959228,43.1139111 47.0958976,46.1812039 C45.4958724,49.2484966 42.0993276,50.4347137 39.5100136,48.8307019 C36.9202986,47.2270899 36.1182809,43.4401508 37.7183062,40.3728581" id="Fill-43" fill="#FFFFFF"></path>
            <path d="M101.555663,33.6771084 C95.7654968,25.8313638 85.7940113,23.9998638 79.284435,29.5859188 C72.7744577,35.1723736 72.1913909,46.0610229 77.9815574,53.9067675 C83.7717238,61.7525121 93.7432093,63.5840121 100.252786,57.9979571 C106.762763,52.4115023 107.34583,41.522853 101.555663,33.6771084" id="Fill-45" fill="#000000"></path>
            <path d="M91.423293,36.2207784 C89.3681228,33.4361468 85.8288189,32.7860663 83.518607,34.768692 C81.2079942,36.7513177 81.0006726,40.6162185 83.0558429,43.4008501 C85.1110131,46.1854818 88.650317,46.8359621 90.9609299,44.8529366 C93.2715427,42.8703108 93.4784633,39.0054101 91.423293,36.2207784" id="Fill-47" fill="#FFFFFF"></path>
        </g>
    </g>
</svg>